<?xml version="1.0" encoding="UTF-8"?>
<!-- Created with Inkscape (http://www.inkscape.org/) -->
<svg width="210mm" height="210mm" version="1.1" viewBox="0 0 210 210" xmlns="http://www.w3.org/2000/svg">
 <g>
  <rect width="210" height="210" fill="#130a45"/>
  <path d="m108.03 79.599c-11.908-0.12252-23.658 6.848-29.435 15.605l-1.4174-12.52-34.742 2.4818 11.581 109.19 35.569-2.0677-10.369-91.595c2.5704-4.8927 6.715-8.6091 12.437-10.149 9.4367-2.5394 23.927 7.8129 26.59 27.919 3.7962 28.659 4.932 76.535 4.932 76.535l38.051-2.0681s3.2204-59.891-10.432-85.838c-13.011-24.727-29.307-27.352-42.764-27.491z" fill="#ff3561"/>
  <g fill="#fffabf">
   <path d="m151.05 66.402-28.156-8.2563 27.098-9.9499 8.0446-34.719 8.8914 35.142 31.12 7.6212-29.638 9.3148-7.6212 24.769z"/>
   <path d="m13.259 90.256s0.24789 15.369 9.42 21.071c9.1721 5.7016 25.037 0.2479 25.037 0.2479s-2.7268-14.874-12.643-19.088c-9.9158-4.2142-21.815-2.231-21.815-2.231z"/>
   <path d="m64.051 134.26-6.1357 7.1307 8.2915 5.4724 5.6382-6.799z"/>
   <path d="m65.709 151.17-6.799 6.9648 8.2915 6.3015 7.794-8.4573z"/>
   <path d="m66.538 168.25-6.6332 6.9648 7.9598 6.799 6.9648-8.1257z"/>
   <path d="m79.307 156.98 6.6332-7.1307 7.1307 7.4623-7.9598 7.1307z"/>
   <path d="m85.94 168.92-6.6332 5.804 6.799 6.3015 6.799-6.4674z"/>
  </g>
 </g>
</svg>
