<?xml version="1.0" encoding="UTF-8"?>
<!-- Created with Inkscape (http://www.inkscape.org/) -->
<svg width="210mm" height="210mm" version="1.1" viewBox="0 0 210 210" xmlns="http://www.w3.org/2000/svg">
 <g>
  <rect width="210" height="210" fill="#130a45"/>
  <path d="m78.922 196.51c-17.723 14.687-42.473-14.836-45.13-55.549-2.6566-40.713 25.604-57.328 57.607-56.611 22.216 0.49715 38.364 33.806 38.364 33.806s7.9413-4.4915 4.9604-16.115c-1.6867-6.5773-24.556-22.671-10.41-34.353 24.286-20.055 45.526 17.318 48.055 57.641 1.9033 30.345-12.991 54.251-45.306 57.603-30.724 3.1863-46.318-37.483-46.318-37.483s-6.5483 8.6913-6.3518 15.825c0.25581 9.2877 20.696 21.839 4.5286 35.237z" fill="#ff3561"/>
  <g fill="#fffabf">
   <path d="m91.677 101.73-50.954-14.942 49.039-18.006 14.558-62.831 16.091 63.597 56.318 13.792-53.636 16.857-13.792 44.825z"/>
   <path d="m75.499 132.36-6.1357 7.1307 8.2915 5.4724 5.6382-6.799z"/>
   <path d="m77.157 149.28-6.799 6.9648 8.2915 6.3015 7.794-8.4573z"/>
   <path d="m77.986 166.36-6.6332 6.9648 7.9598 6.799 6.9648-8.1257z"/>
   <path d="m90.755 155.08 6.6332-7.1307 7.1307 7.4623-7.9598 7.1307z"/>
   <path d="m97.388 167.02-6.6332 5.804 6.799 6.3015 6.799-6.4674z"/>
  </g>
 </g>
</svg>
