<?xml version="1.0" encoding="UTF-8" standalone="no"?>
<!-- Created with Inkscape (http://www.inkscape.org/) -->

<svg
   width="210mm"
   height="210mm"
   viewBox="0 0 210 210"
   version="1.1"
   id="svg5"
   inkscape:version="1.1 (c68e22c387, 2021-05-23)"
   sodipodi:docname="nebula-2.svg"
   inkscape:export-filename="C:\Users\Rimarok le for\Cozy Drive\Vectoriels\one-shots\nebula-2.png"
   inkscape:export-xdpi="96"
   inkscape:export-ydpi="96"
   xmlns:inkscape="http://www.inkscape.org/namespaces/inkscape"
   xmlns:sodipodi="http://sodipodi.sourceforge.net/DTD/sodipodi-0.dtd"
   xmlns="http://www.w3.org/2000/svg"
   xmlns:svg="http://www.w3.org/2000/svg">
  <sodipodi:namedview
     id="namedview7"
     pagecolor="#ffffff"
     bordercolor="#666666"
     borderopacity="1.0"
     inkscape:pageshadow="2"
     inkscape:pageopacity="0.0"
     inkscape:pagecheckerboard="0"
     inkscape:document-units="mm"
     showgrid="false"
     inkscape:zoom="0.52410025"
     inkscape:cx="527.57083"
     inkscape:cy="590.53588"
     inkscape:window-width="1920"
     inkscape:window-height="1017"
     inkscape:window-x="-8"
     inkscape:window-y="-8"
     inkscape:window-maximized="1"
     inkscape:current-layer="layer1" />
  <defs
     id="defs2" />
  <g
     inkscape:label="Calque 1"
     inkscape:groupmode="layer"
     id="layer1">
    <rect
       style="fill:#130a45;fill-opacity:1;stroke:none;stroke-width:0.789114;stroke-linecap:round;stroke-linejoin:round"
       id="rect3049"
       width="210"
       height="210"
       x="0"
       y="0" />
    <path
       style="fill:#ff3561;fill-opacity:1;stroke:none;stroke-width:0.245822px;stroke-linecap:butt;stroke-linejoin:miter;stroke-opacity:1"
       d="M 78.92242,196.50542 C 61.19956,211.19212 36.449361,181.66924 33.792796,140.95631 31.136227,100.24338 59.3963,83.628657 91.39987,84.344849 c 22.21563,0.497149 38.36402,33.806131 38.36402,33.806131 0,0 7.94126,-4.49147 4.96045,-16.11523 -1.68669,-6.577342 -24.55552,-22.671125 -10.40957,-34.352685 24.28575,-20.054918 45.52565,17.318014 48.05481,57.641495 1.90332,30.34504 -12.99107,54.25127 -45.30637,57.60258 -30.72411,3.18629 -46.31757,-37.48305 -46.31757,-37.48305 0,0 -6.54831,8.69132 -6.35182,15.8248 0.25581,9.28771 20.69578,21.83901 4.5286,35.23653 z"
       id="path857"
       sodipodi:nodetypes="ssscsssscss" />
    <path
       style="fill:#fffabf;fill-opacity:1;stroke:none;stroke-width:0.283961px;stroke-linecap:butt;stroke-linejoin:miter;stroke-opacity:1"
       d="M 91.677472,101.73485 40.722989,86.793313 89.761887,68.786846 104.32032,5.9557664 120.41121,69.553079 176.72929,83.345274 123.09301,100.20238 109.30082,145.027 Z"
       id="path2485"
       sodipodi:nodetypes="ccccccccc" />
    <path
       style="fill:#fffabf;fill-opacity:1;stroke:none;stroke-width:0.245822px;stroke-linecap:butt;stroke-linejoin:miter;stroke-opacity:1"
       d="m 75.49858,132.36117 -6.1357,7.13068 8.29149,5.47238 5.63821,-6.79902 z"
       id="path2775" />
    <path
       style="fill:#fffabf;fill-opacity:1;stroke:none;stroke-width:0.245822px;stroke-linecap:butt;stroke-linejoin:miter;stroke-opacity:1"
       d="m 77.15689,149.27581 -6.79903,6.96484 8.29149,6.30153 7.794,-8.45731 z"
       id="path2777" />
    <path
       style="fill:#fffabf;fill-opacity:1;stroke:none;stroke-width:0.245822px;stroke-linecap:butt;stroke-linejoin:miter;stroke-opacity:1"
       d="m 77.98603,166.35627 -6.63319,6.96485 7.95983,6.79902 6.96485,-8.12566 z"
       id="path2779" />
    <path
       style="fill:#fffabf;fill-opacity:1;stroke:none;stroke-width:0.245822px;stroke-linecap:butt;stroke-linejoin:miter;stroke-opacity:1"
       d="m 90.75492,155.07985 6.63319,-7.13068 7.13068,7.46234 -7.95983,7.13068 z"
       id="path2781" />
    <path
       style="fill:#fffabf;fill-opacity:1;stroke:none;stroke-width:0.245822px;stroke-linecap:butt;stroke-linejoin:miter;stroke-opacity:1"
       d="m 97.3881,167.01959 -6.63318,5.80404 6.79902,6.30153 6.79901,-6.46735 z"
       id="path2783" />
  </g>
</svg>
